<svg width="281" height="33" viewBox="0 0 281 33" fill="none" xmlns="http://www.w3.org/2000/svg">
    <g clip-path="url(#clip0)">
        <path d="M9.36933 30.0301C9.45933 30.3101 10.0293 32.0301 15.9993 32.0301H16.0193C21.9993 32.0301 22.5593 30.3101 22.6493 30.0301C22.7393 29.7501 22.9293 28.9001 22.6393 27.6701C21.1693 21.7501 17.0593 19.0901 16.0193 19.0901H15.9993C14.9593 19.0901 10.8493 21.7401 9.37933 27.6701C9.08933 28.8901 9.27933 29.7401 9.36933 30.0301Z" fill="#FFFFFF"/>
        <path d="M22.6593 2C22.5693 1.72 21.9993 0 16.0193 0H15.9993C10.0193 0 9.45933 1.72 9.36933 2C9.27933 2.28 9.08933 3.14 9.37933 4.36C10.8493 10.28 14.9593 12.94 15.9993 12.94H16.0193C17.0593 12.94 21.1693 10.29 22.6393 4.36C22.9293 3.14 22.7493 2.28 22.6593 2Z" fill="#FFFFFF"/>
        <path d="M2 9.37007C1.72 9.46007 0 10.0201 0 16.0001V16.0201C0 22.0001 1.72 22.5601 2 22.6501C2.28 22.7401 3.13 22.9301 4.36 22.6401C10.28 21.1701 12.94 17.0601 12.94 16.0201V16.0001C12.94 14.9601 10.29 10.8501 4.36 9.38007C3.14 9.09007 2.28 9.28007 2 9.37007Z" fill="#FFFFFF"/>
        <path d="M30.0201 22.6601C30.3001 22.5701 32.0201 22.0001 32.0201 16.0301V16.0001C32.0201 10.0201 30.3001 9.46007 30.0201 9.37007C29.7401 9.28007 28.8901 9.09007 27.6601 9.38007C21.7401 10.8501 19.0801 14.9601 19.0801 16.0001V16.0201C19.0801 17.0601 21.7301 21.1701 27.6601 22.6401C28.8901 22.9301 29.7401 22.7501 30.0201 22.6601Z" fill="#FFFFFF"/>
        <path d="M51.7205 8.63993C50.3005 7.16993 48.3305 6.26993 46.2605 6.26993C42.2705 6.26993 39.0505 9.72993 39.0505 13.6699C39.0505 17.6099 42.3005 21.0699 46.3105 21.0699C48.3305 21.0699 50.3005 20.1199 51.7205 18.6999V21.1699C50.1805 22.2899 48.2805 22.9299 46.3805 22.9299C41.3305 22.9299 37.0605 18.8299 37.0605 13.7499C37.0605 8.62993 41.2605 4.42993 46.3805 4.42993C48.3705 4.42993 50.1305 4.99993 51.7205 6.18993" fill="#FFFFFF"/>
        <path d="M53.4004 17.0599C53.4004 13.7899 55.9904 11.1499 59.2604 11.1499C62.5304 11.1499 65.1204 13.7799 65.1204 17.0599C65.1204 20.3299 62.5104 22.9199 59.2604 22.9199C56.0104 22.9199 53.4004 20.3399 53.4004 17.0599ZM55.3004 17.0399C55.3004 19.3199 56.9104 21.1699 59.2604 21.1699C61.6104 21.1699 63.2204 19.3199 63.2204 17.0399C63.2204 14.7899 61.6104 12.9099 59.2604 12.9099C56.9104 12.9099 55.3004 14.7899 55.3004 17.0399Z" fill="#FFFFFF"/>
        <path d="M69.1305 3.04004H67.2305V22.61H69.1305V3.04004Z" fill="#FFFFFF"/>
        <path d="M71.3398 17.0599C71.3398 13.7899 73.9298 11.1499 77.1998 11.1499C80.4698 11.1499 83.0598 13.7799 83.0598 17.0599C83.0598 20.3299 80.4498 22.9199 77.1998 22.9199C73.9498 22.9199 71.3398 20.3399 71.3398 17.0599ZM73.2299 17.0399C73.2299 19.3199 74.8398 21.1699 77.1898 21.1699C79.5398 21.1699 81.1498 19.3199 81.1498 17.0399C81.1498 14.7899 79.5398 12.9099 77.1898 12.9099C74.8498 12.9099 73.2299 14.7899 73.2299 17.0399Z" fill="#FFFFFF"/>
        <path d="M89.8401 14.0499C89.5801 13.4599 89.0102 12.9099 88.3202 12.9099C87.6602 12.9099 86.9402 13.4299 86.9402 14.1399C86.9402 15.1599 88.2202 15.5399 89.5302 16.0899C90.8402 16.6399 92.1202 17.4199 92.1202 19.2899C92.1202 21.3999 90.4102 22.9199 88.3502 22.9199C86.4802 22.9199 85.0102 21.8499 84.4102 20.0999L86.0901 19.3899C86.5601 20.4299 87.1102 21.1699 88.3702 21.1699C89.3902 21.1699 90.1702 20.4799 90.1702 19.4599C90.1702 16.9699 85.1402 17.8199 85.1402 14.3099C85.1402 12.4399 86.6602 11.1499 88.4602 11.1499C89.7402 11.1499 90.9302 12.0499 91.4302 13.2099" fill="#FFFFFF"/>
        <path d="M98.9691 14.0499C98.7091 13.4599 98.1391 12.9099 97.4491 12.9099C96.7891 12.9099 96.0691 13.4299 96.0691 14.1399C96.0691 15.1599 97.3491 15.5399 98.6591 16.0899C99.9591 16.6399 101.249 17.4199 101.249 19.2899C101.249 21.3999 99.5391 22.9199 97.4791 22.9199C95.6091 22.9199 94.1391 21.8499 93.5391 20.0999L95.2191 19.3899C95.6891 20.4299 96.2391 21.1699 97.4991 21.1699C98.5191 21.1699 99.2991 20.4799 99.2991 19.4599C99.2991 16.9699 94.2691 17.8199 94.2691 14.3099C94.2691 12.4399 95.7891 11.1499 97.5891 11.1499C98.8691 11.1499 100.059 12.0499 100.559 13.2099" fill="#FFFFFF"/>
        <path d="M104.79 17.4399C104.81 19.4999 106.28 21.1599 108.44 21.1599C110.05 21.1599 111.1 20.1899 111.83 18.8599L113.44 19.7799C112.37 21.7699 110.57 22.9099 108.29 22.9099C104.97 22.9099 102.83 20.3699 102.83 17.1699C102.83 13.8699 104.75 11.1399 108.24 11.1399C111.82 11.1399 113.72 14.1099 113.53 17.4299L104.79 17.4399ZM111.55 15.8299C111.29 14.2199 109.94 12.9099 108.28 12.9099C106.64 12.9099 105.13 14.2099 104.89 15.8299H111.55Z" fill="#FFFFFF"/>
        <path d="M117.339 17.68C117.339 19.55 117.549 21.17 119.849 21.17C122.149 21.17 122.359 19.56 122.359 17.68V11.46H124.259V17.89C124.259 20.86 123.139 22.92 119.849 22.92C116.559 22.92 115.439 20.86 115.439 17.89V11.46H117.339" fill="#FFFFFF"/>
        <path d="M128.58 12.6699H128.63C129.22 11.7399 130.17 11.1499 131.31 11.1499C132.61 11.1499 133.8 11.8399 134.39 12.9999C135.05 11.7699 136.38 11.1499 137.73 11.1499C140.58 11.1499 141.29 13.4699 141.29 15.8199V22.6099H139.39V16.1299C139.39 14.6799 139.3 12.8999 137.35 12.8999C135.17 12.8999 134.93 15.0099 134.93 16.6999V22.6099H133.03V16.2799C133.03 14.8999 132.86 12.9099 131.04 12.9099C128.81 12.9099 128.57 15.1599 128.57 16.8499V22.6099H126.67V11.4599H128.57" fill="#FFFFFF"/>
        <path d="M148.08 4.72998H151.45C154.13 4.72998 156.31 5.08998 158.43 6.88998C160.47 8.64998 161.4 11.04 161.4 13.7C161.4 16.31 160.45 18.61 158.48 20.37C156.34 22.27 154.21 22.62 151.41 22.62H148.09L148.08 4.72998ZM151.52 20.76C153.7 20.76 155.53 20.45 157.17 18.91C158.64 17.53 159.4 15.66 159.4 13.67C159.4 11.63 158.62 9.65998 157.08 8.30998C155.44 6.85998 153.64 6.57998 151.53 6.57998H150.08V20.77H151.52V20.76Z" fill="#FFFFFF"/>
        <path d="M165.12 17.4399C165.14 19.4999 166.61 21.1599 168.77 21.1599C170.38 21.1599 171.43 20.1899 172.16 18.8599L173.77 19.7799C172.7 21.7699 170.9 22.9099 168.62 22.9099C165.3 22.9099 163.16 20.3699 163.16 17.1699C163.16 13.8699 165.08 11.1399 168.57 11.1399C172.15 11.1399 174.05 14.1099 173.86 17.4299L165.12 17.4399ZM171.88 15.8299C171.62 14.2199 170.27 12.9099 168.61 12.9099C166.97 12.9099 165.45 14.2099 165.22 15.8299H171.88Z" fill="#FFFFFF"/>
        <path d="M178.38 12.8199H178.43C179.21 11.7499 180.23 11.1599 181.61 11.1599C184.69 11.1599 185.41 13.3899 185.41 15.9999V22.6199H183.51V16.3299C183.51 14.5299 183.37 12.9099 181.16 12.9099C178.55 12.9099 178.39 15.3299 178.39 17.3199V22.6099H176.49V11.4599H178.39" fill="#FFFFFF"/>
        <path d="M190.999 22.62H189.099V13.22H187.939V11.46H189.099V7.45996H190.999V11.46H192.989V13.22H190.999" fill="#FFFFFF"/>
        <path d="M205.36 22.6199H203.46V21.0799H203.41C202.44 22.3099 201.13 22.9299 199.57 22.9299C196.3 22.9299 194.23 20.1499 194.23 17.0699C194.23 13.8899 196.25 11.1599 199.59 11.1599C201.11 11.1599 202.48 11.8699 203.41 13.0599H203.46V11.4699H205.36V22.6199ZM196.17 16.9199C196.17 19.0999 197.45 21.1699 199.82 21.1699C202.26 21.1699 203.54 19.1999 203.54 16.9499C203.54 14.7199 202.14 12.9199 199.79 12.9199C197.6 12.9099 196.17 14.8299 196.17 16.9199Z" fill="#FFFFFF"/>
        <path d="M210.25 3.04004H208.35V22.61H210.25V3.04004Z" fill="#FFFFFF"/>
        <path d="M234.391 13.6199C234.441 16.0399 234.181 18.0299 232.541 19.9299C230.901 21.8299 228.411 22.9199 225.921 22.9199C220.891 22.9199 216.711 18.7399 216.711 13.7099C216.711 8.58991 220.891 4.40991 226.031 4.40991C229.161 4.40991 231.701 5.80991 233.601 8.27991L232.151 9.62991C230.651 7.51991 228.641 6.25991 226.011 6.25991C221.931 6.25991 218.701 9.69991 218.701 13.7299C218.701 15.6299 219.461 17.4299 220.791 18.7799C222.091 20.0899 223.991 21.0599 225.871 21.0599C228.981 21.0599 232.251 18.7799 232.251 15.4599H226.941V13.6099" fill="#FFFFFF"/>
        <path d="M238.9 12.6699H238.95C239.61 11.7899 240.18 11.1499 241.42 11.1499C242.06 11.1499 242.58 11.3599 243.13 11.6699L242.23 13.3999C241.85 13.1399 241.59 12.8999 241.09 12.8999C239 12.8999 238.91 15.5799 238.91 17.0299V22.6099H237V11.4599H238.9" fill="#FFFFFF"/>
        <path d="M243.58 17.0599C243.58 13.7899 246.17 11.1499 249.44 11.1499C252.71 11.1499 255.3 13.7799 255.3 17.0599C255.3 20.3299 252.69 22.9199 249.44 22.9199C246.18 22.9199 243.58 20.3399 243.58 17.0599ZM245.47 17.0399C245.47 19.3199 247.08 21.1699 249.43 21.1699C251.78 21.1699 253.39 19.3199 253.39 17.0399C253.39 14.7899 251.78 12.9099 249.43 12.9099C247.09 12.9099 245.47 14.7899 245.47 17.0399Z" fill="#FFFFFF"/>
        <path d="M259.66 17.68C259.66 19.55 259.87 21.17 262.17 21.17C264.47 21.17 264.68 19.56 264.68 17.68V11.46H266.58V17.89C266.58 20.86 265.46 22.92 262.17 22.92C258.87 22.92 257.76 20.86 257.76 17.89V11.46H259.66" fill="#FFFFFF"/>
        <path d="M271.38 13.0499H271.43C272.35 11.8199 273.73 11.1499 275.27 11.1499C278.54 11.1499 280.61 13.9699 280.61 17.0599C280.61 20.2399 278.59 22.9199 275.25 22.9199C273.73 22.9199 272.33 22.2599 271.43 21.0499H271.38V28.8799H269.48V11.4599H271.38V13.0499ZM271.29 16.9199C271.29 19.0999 272.57 21.1699 274.94 21.1699C277.38 21.1699 278.66 19.1999 278.66 16.9499C278.66 14.7199 277.26 12.9199 274.91 12.9199C272.71 12.9099 271.29 14.8299 271.29 16.9199Z" fill="#FFFFFF"/>
    </g>
    <defs>
        <clipPath id="clip0">
            <rect width="280.61" height="32.03" fill="white"/>
        </clipPath>
    </defs>
</svg>
